<?xml version="1.0" standalone="no"?><!DOCTYPE svg PUBLIC "-//W3C//DTD SVG 1.1//EN" "http://www.w3.org/Graphics/SVG/1.1/DTD/svg11.dtd"><svg t="1642874350223" class="icon" viewBox="0 0 1024 1024" version="1.1" xmlns="http://www.w3.org/2000/svg" p-id="14638" xmlns:xlink="http://www.w3.org/1999/xlink" width="200" height="200"><defs><style type="text/css"></style></defs><path d="M812.221666 596.623329c39.231513 0 71.148433-31.917944 71.148433-71.151503 0-39.23049-31.91692-71.14741-71.148433-71.14741-39.23356 0-71.151503 31.91692-71.151503 71.14741C741.069139 564.705386 772.988106 596.623329 812.221666 596.623329zM812.221666 491.163439c18.917862 0 34.30941 15.391549 34.30941 34.308387 0 18.919908-15.391549 34.31248-34.30941 34.31248-18.919908 0-34.31248-15.392572-34.31248-34.31248C777.908162 506.553964 793.300734 491.163439 812.221666 491.163439z" p-id="14639"></path><path d="M664.837944 467.568045c39.231513 0 71.14741-31.917944 71.14741-71.151503 0-39.23049-31.915897-71.14741-71.14741-71.14741s-71.14741 31.91692-71.14741 71.14741C593.690534 435.649078 625.606431 467.568045 664.837944 467.568045zM664.837944 362.107131c18.917862 0 34.308387 15.391549 34.308387 34.308387 0 18.919908-15.390525 34.31248-34.308387 34.31248s-34.308387-15.392572-34.308387-34.31248C630.529557 377.49868 645.920082 362.107131 664.837944 362.107131z" p-id="14640"></path><path d="M981.344504 494.64575l0-95.1685c0-38.181601-6.478552-71.91796-19.254529-100.272751-11.484565-25.486464-28.085662-46.812165-49.343825-63.382563-44.128033-34.399461-96.464005-39.535435-123.733069-39.535435L530.602683 196.286502l0-47.291073c0-10.172687-8.246825-18.419512-18.419512-18.419512s-18.419512 8.246825-18.419512 18.419512l0 47.291073L220.949204 196.286502c-27.269064 0-79.605036 5.136997-123.733069 39.535435-21.25714 16.570397-37.859259 37.896098-49.342802 63.382563-12.777001 28.354791-19.254529 62.09115-19.254529 100.272751l0 95.158267-0.01535 27.733645 0 151.796218c0 65.411779 53.218062 118.628818 118.631888 118.628818l47.955198 0c3.240811 0.156566 17.126053 0.596588 33.735335-2.153036 26.479071-4.379751 46.794769-14.349823 60.382229-29.635971 14.512529-16.32685 22.955828-28.534893 24.713868-31.140231 14.757099-19.72525 36.772508-31.719422 65.444525-35.655058 5.853311-0.803295 11.965519-1.336438 18.674315-1.626034l70.296019 0 0.316202 0.002047 0.37453-0.01535c0.423649-0.008186 42.156122-1.160429 61.145615 22.577205 6.353708 7.942903 17.944697 9.234315 25.889647 2.877537 7.943926-6.354731 9.231245-17.945721 2.877537-25.889647-29.641087-37.052894-84.874039-36.561707-90.896196-36.390815l-70.39528 0-0.76748 0.016373c-8.03193 0.334621-15.400758 0.974188-22.526039 1.952468-39.023782 5.354961-69.39858 22.364357-90.282213 50.554396l-0.567935 0.811482c-0.075725 0.113587-7.688099 11.539824-21.830191 27.450189-16.142655 18.159592-52.369741 20.199041-64.925708 19.462261l-0.587378-0.037862-49.0266 0c-45.101197 0-81.792864-36.68962-81.792864-81.789795L65.442478 522.379395l0.01535-27.733645 0-95.1685c0-61.172221 18.305925-106.458637 54.407144-134.601604 35.43914-27.626197 78.543867-31.751145 101.084233-31.751145l568.062853 0c22.540366 0 65.645093 4.124947 101.084233 31.751145 36.102243 28.142967 54.408167 73.429383 54.408167 134.601604l0 95.178733 0.01535 27.713178 0 151.796218c0 45.099151-36.691667 81.789795-81.792864 81.789795l-48.439222 0-1.174756 0.037862c-11.68718 0.750083-48.713468-1.222851-64.924685-19.462261-14.143115-15.910365-21.75549-27.336602-21.816888-27.429723l-0.581238-0.831948c-20.883633-28.190039-51.259454-45.199435-90.278119-50.553373-5.613858-0.772596-19.290345-1.197268-36.586267-1.673106-4.142343-0.113587-7.53358-0.205685-9.326413-0.280386-10.161431-0.423649-18.74697 7.472182-19.170618 17.635659s7.472182 18.74697 17.635659 19.170618c1.973958 0.081864 5.449106 0.178055 9.849322 0.298805 8.532327 0.234337 28.514427 0.784876 32.586163 1.343601 28.6669 3.934612 50.682309 15.928784 65.440431 35.653011 1.75804 2.604314 10.200316 14.813381 24.714891 31.142278 13.586436 15.284101 33.902134 25.255197 60.381206 29.634948 11.480472 1.899256 21.658276 2.275833 27.919886 2.275833 2.797719 0 4.814656-0.074701 5.815449-0.122797l47.956222 0c65.413825 0 118.631888-53.217039 118.631888-118.628818L981.359854 522.358929 981.344504 494.64575z" p-id="14641"></path><path d="M268.360004 585.593112c0.013303 0 0.025583 0 0.039909 0 10.153244 0 18.396999-8.221242 18.418488-18.380626l0.220011-105.304348 105.065917-0.23843c10.172687-0.022513 18.400069-8.28878 18.377556-18.461467-0.022513-10.159384-8.264221-18.377556-18.418488-18.377556-0.014326 0-0.028653 0-0.042979 0l-104.905258 0.23843 0.220011-105.146758c0.021489-10.172687-8.207939-18.436908-18.380626-18.458397-0.013303 0-0.025583 0-0.039909 0-10.154267 0-18.396999 8.222265-18.418488 18.380626l-0.220011 105.307418-105.065917 0.23843c-10.172687 0.022513-18.400069 8.28878-18.377556 18.461467 0.022513 10.159384 8.264221 18.377556 18.418488 18.377556 0.013303 0 0.028653 0 0.042979 0l104.905258-0.23843-0.220011 105.142665C249.957889 577.307402 258.187317 585.572646 268.360004 585.593112z" p-id="14642"></path></svg>