<?xml version="1.0" standalone="no"?><!DOCTYPE svg PUBLIC "-//W3C//DTD SVG 1.1//EN" "http://www.w3.org/Graphics/SVG/1.1/DTD/svg11.dtd"><svg t="1642884112549" class="icon" viewBox="0 0 1024 1024" version="1.1" xmlns="http://www.w3.org/2000/svg" p-id="3921" xmlns:xlink="http://www.w3.org/1999/xlink" width="200" height="200"><defs><style type="text/css"></style></defs><path d="M384 640a42.666667 42.666667 0 1 0 42.666667 42.666667 42.666667 42.666667 0 0 0-42.666667-42.666667z m-298.666667-42.666667a42.666667 42.666667 0 0 0-42.666666 42.666667v85.333333a42.666667 42.666667 0 0 0 85.333333 0v-85.333333a42.666667 42.666667 0 0 0-42.666667-42.666667z m853.333334 0a42.666667 42.666667 0 0 0-42.666667 42.666667v85.333333a42.666667 42.666667 0 0 0 85.333333 0v-85.333333a42.666667 42.666667 0 0 0-42.666666-42.666667z m-213.333334-298.666666h-170.666666V244.053333A85.333333 85.333333 0 0 0 597.333333 170.666667a85.333333 85.333333 0 0 0-170.666666 0 85.333333 85.333333 0 0 0 42.666666 73.386666V298.666667H298.666667a128 128 0 0 0-128 128v384a128 128 0 0 0 128 128h426.666666a128 128 0 0 0 128-128v-384a128 128 0 0 0-128-128z m-139.946666 85.333333l-21.333334 85.333333h-104.106666l-21.333334-85.333333zM768 810.666667a42.666667 42.666667 0 0 1-42.666667 42.666666H298.666667a42.666667 42.666667 0 0 1-42.666667-42.666666v-384a42.666667 42.666667 0 0 1 42.666667-42.666667h52.053333L384 522.24a42.666667 42.666667 0 0 0 42.666667 32.426667h170.666666a42.666667 42.666667 0 0 0 42.666667-32.426667L673.28 384H725.333333a42.666667 42.666667 0 0 1 42.666667 42.666667z m-128-170.666667a42.666667 42.666667 0 1 0 42.666667 42.666667 42.666667 42.666667 0 0 0-42.666667-42.666667z" p-id="3922"></path></svg>