<?xml version="1.0" standalone="no"?><!DOCTYPE svg PUBLIC "-//W3C//DTD SVG 1.1//EN" "http://www.w3.org/Graphics/SVG/1.1/DTD/svg11.dtd"><svg t="1642885107635" class="icon" viewBox="0 0 1024 1024" version="1.1" xmlns="http://www.w3.org/2000/svg" p-id="2264" xmlns:xlink="http://www.w3.org/1999/xlink" width="200" height="200"><defs><style type="text/css"></style></defs><path d="M904 332.571429q0 57.714286-40.857143 98.571428T764.571429 472t-98.571429-40.857143T625.142857 332.571429t40.857143-98.571429T764.571429 193.142857t98.571428 40.857143T904 332.571429z m-440 424q0-59.428571-41.714286-101.142858t-101.142857-41.714285q-15.428571 0-30.857143 3.428571l59.428572 24q44 17.714286 62.571428 60.857143T413.142857 788.571429q-17.714286 44-61.142857 62.285714t-86.857143 0.571428q-12-4.571429-35.428571-14t-34.857143-14q18.285714 34.285714 52 55.142858t74.285714 20.857142q59.428571 0 101.142857-41.714285t41.714286-101.142857z m474.285714-423.428572q0-72-51.142857-123.142857T764 158.857143q-72.571429 0-123.714286 51.142857T589.142857 333.142857q0 72.571429 51.142857 123.428572t123.714286 50.857142q72 0 123.142857-50.857142t51.142857-123.428572z m85.714286 0q0 108-76.285714 184T764 593.142857l-249.714286 182.285714q-6.857143 73.714286-62.285714 124.571429t-130.857143 50.857143q-69.142857 0-122.285714-43.428572t-67.428572-109.714285L0 745.142857V500l222.285714 89.714286q45.142857-27.428571 98.857143-27.428572 7.428571 0 20 1.142857l162.285714-232.571428q1.142857-106.857143 77.428572-182.285714T764 73.142857q107.428571 0 183.714286 76.285714T1024 333.142857z" p-id="2265"></path></svg>